<svg width="50" height="18" viewBox="0 0 50 18" fill="none" xmlns="http://www.w3.org/2000/svg">
<path d="M4.94189 4.40766H6.64732L5.79461 2.26685L4.94189 4.40766Z" fill="#2FABF7"/>
<path d="M26.1048 2.57231C25.9498 2.49585 25.7172 2.49585 25.4847 2.49585H23.9343V3.71917H25.4847C25.7172 3.71917 25.9498 3.71917 26.1048 3.64271C26.2598 3.56625 26.3374 3.33688 26.3374 3.10751C26.4149 2.80168 26.2598 2.64876 26.1048 2.57231Z" fill="#228FE0"/>
<path d="M42.6938 0.279053V1.19654L42.2287 0.279053H38.5853V1.19654L38.1202 0.279053H33.159C32.3062 0.279053 31.6086 0.431968 30.9884 0.737798V0.279053H27.5V0.737798C27.1125 0.431968 26.6473 0.279053 26.0272 0.279053H13.5466L12.6938 2.19049L11.8411 0.279053H7.88764V1.19654L7.42253 0.279053H4.08919L2.53881 3.87255L0.755859 7.84834H2.53881H4.70935L5.17446 6.62502H6.25974L6.72485 7.84834H11.221V6.93085L11.6086 7.84834H13.8566L14.2442 6.93085V7.84834H25.0194V5.86045H25.1745C25.3295 5.86045 25.3295 5.86045 25.3295 6.08982V7.77188H30.9109V7.31314C31.376 7.54251 32.0737 7.77188 33.0039 7.77188H35.3295L35.7946 6.54857H36.8799L37.345 7.77188H41.8411V6.62502L42.5388 7.77188H46.1822V0.279053H42.6938ZM16.4923 6.70148H15.1745V2.49632L13.314 6.70148H12.1512L10.2907 2.49632V6.70148H7.65508L7.11245 5.55462H4.47679L4.01167 6.77794H2.53881L4.86439 1.34946H6.80237L8.97291 6.47211V1.34946H11.0659L12.7714 5.01942L14.3218 1.34946H16.4923V6.70148ZM21.7636 2.49632H18.7404V3.49027H21.6861V4.56067H18.7404V5.63108H21.7636V6.77794H17.4225V1.34946H21.7636V2.49632ZM27.5776 4.71359C27.7326 5.01942 27.8101 5.24879 27.8101 5.70753V6.77794H26.4923V6.08982C26.4923 5.78399 26.4923 5.32525 26.2597 5.01942C26.0272 4.79004 25.7946 4.79004 25.3295 4.79004H23.9342V6.77794H22.6163V1.34946H25.5621C26.2597 1.34946 26.7249 1.34946 27.1125 1.57883C27.5 1.8082 27.7326 2.19049 27.7326 2.80215C27.7326 3.64318 27.19 4.10193 26.8024 4.25484C27.19 4.3313 27.4225 4.56067 27.5776 4.71359ZM29.9031 6.70148H28.5853V1.273H29.9031V6.70148ZM45.1745 6.70148H43.314L40.8334 2.64923V6.70148H38.1977L37.7326 5.55462H35.0194L34.5543 6.77794H33.0814C32.4613 6.77794 31.6861 6.62502 31.221 6.16628C30.7559 5.70753 30.5233 5.09587 30.5233 4.10193C30.5233 3.33735 30.6783 2.57278 31.221 1.96112C31.6086 1.50237 32.3062 1.34946 33.159 1.34946H34.3993V2.49632H33.159C32.6938 2.49632 32.4613 2.57278 32.1512 2.80215C31.9187 3.03152 31.7636 3.49027 31.7636 4.02547C31.7636 4.63713 31.8411 5.01942 32.1512 5.32525C32.3838 5.55462 32.6938 5.63108 33.0814 5.63108H33.6241L35.407 1.42591H37.345L39.5156 6.54857V1.42591H41.4535L43.7016 5.17233V1.42591H45.0194V6.70148H45.1745Z" fill="#0571C1"/>
<path d="M35.4846 4.40766H37.2676L36.4149 2.26685L35.4846 4.40766Z" fill="#228FE0"/>
<path d="M22.3063 15.4179V11.0598L20.2908 13.2006L22.3063 15.4179Z" fill="#228FE0"/>
<path d="M14.0117 11.5942V12.5882H16.8799V13.6586H14.0117V14.8055H17.19L18.6628 13.1998L17.2675 11.5942H14.0117Z" fill="#2FABF7"/>
<path d="M25.2521 11.5942H23.6241V12.9705H25.3296C25.7947 12.9705 26.1048 12.7411 26.1048 12.2824C26.0272 11.8236 25.7172 11.5942 25.2521 11.5942Z" fill="#228FE0"/>
<path d="M49.2055 12.8947V9.4541H48.2753H45.9497C45.252 9.4541 44.7094 9.60702 44.3218 9.91285V9.4541H40.7559C40.2132 9.4541 39.5156 9.60702 39.2055 9.91285V9.4541H32.9264V9.91285C32.4613 9.53056 31.6086 9.4541 31.221 9.4541H27.0349V9.91285C26.6473 9.53056 25.7171 9.4541 25.252 9.4541H20.6008L19.5156 10.601L18.5078 9.4541H11.5311V16.9469H18.3528L19.438 15.8001L20.4458 16.9469H24.6318V15.1884H25.1745C25.7171 15.1884 26.4148 15.1884 26.9574 14.959V17.0234H30.4458V15.0355H30.6008C30.8334 15.0355 30.8334 15.0355 30.8334 15.2649V17.0234H41.376C42.0737 17.0234 42.7714 16.8705 43.159 16.5646V17.0234H46.4923C47.19 17.0234 47.8877 16.9469 48.3528 16.6411C49.128 16.1824 49.5931 15.3413 49.5931 14.3474C49.5931 13.8122 49.438 13.277 49.2055 12.8947ZM25.1745 14.118H23.6241V15.953H21.1435L19.5931 14.1945L17.9652 15.953H12.8489V10.5245H18.0427L19.5931 12.283L21.221 10.5245H25.3295C26.3373 10.5245 27.5001 10.8303 27.5001 12.283C27.4225 13.8122 26.3373 14.118 25.1745 14.118ZM32.9264 13.8122C33.0815 14.0416 33.159 14.3474 33.159 14.8061V15.8765H31.8411V15.1884C31.8411 14.8826 31.8411 14.3474 31.6086 14.118C31.4535 13.8886 31.1435 13.8886 30.6784 13.8886H29.283V15.8765H27.9652V10.448H30.9109C31.5311 10.448 32.0737 10.4481 32.4613 10.6774C32.8489 10.9068 33.159 11.2891 33.159 11.9007C33.159 12.7418 32.6163 13.2005 32.2287 13.3534C32.6163 13.5063 32.8489 13.6593 32.9264 13.8122ZM38.2753 11.5949H35.252V12.5889H38.1977V13.6593H35.252V14.7297H38.2753V15.8765H33.9342V10.448H38.2753V11.5949ZM41.5311 15.8765H39.0504V14.7297H41.5311C41.7636 14.7297 41.9187 14.7297 42.0737 14.5768C42.1512 14.5003 42.2287 14.3474 42.2287 14.1945C42.2287 14.0416 42.1512 13.8886 42.0737 13.8122C41.9962 13.7357 41.8411 13.6593 41.6086 13.6593C40.3683 13.5828 38.8954 13.6593 38.8954 11.9772C38.8954 11.2126 39.3605 10.3716 40.7559 10.3716H43.314V11.6714H40.9109C40.6784 11.6714 40.5233 11.6714 40.3683 11.7478C40.2132 11.8243 40.2132 11.9772 40.2132 12.1301C40.2132 12.3595 40.3683 12.4359 40.5233 12.5124C40.6784 12.5889 40.8334 12.5889 40.9884 12.5889H41.6861C42.3838 12.5889 42.8489 12.7418 43.159 13.0476C43.3915 13.277 43.5466 13.6593 43.5466 14.1945C43.5466 15.3413 42.8489 15.8765 41.5311 15.8765ZM48.1977 15.3413C47.8877 15.6472 47.345 15.8765 46.5698 15.8765H44.0892V14.7297H46.5698C46.8024 14.7297 46.9574 14.7297 47.1125 14.5768C47.19 14.5003 47.2675 14.3474 47.2675 14.1945C47.2675 14.0416 47.19 13.8886 47.1125 13.8122C47.0349 13.7357 46.8799 13.6593 46.6474 13.6593C45.407 13.5828 43.9342 13.6593 43.9342 11.9772C43.9342 11.2126 44.3993 10.3716 45.7946 10.3716H48.3528V11.6714H46.0272C45.7946 11.6714 45.6396 11.6714 45.4846 11.7478C45.3295 11.8243 45.3295 11.9772 45.3295 12.1301C45.3295 12.3595 45.407 12.4359 45.6396 12.5124C45.7946 12.5889 45.9497 12.5889 46.1047 12.5889H46.8024C47.5001 12.5889 47.9652 12.7418 48.2753 13.0476C48.3528 13.0476 48.3528 13.1241 48.3528 13.1241C48.5853 13.4299 48.6629 13.8122 48.6629 14.1945C48.6629 14.6532 48.5078 15.0355 48.1977 15.3413Z" fill="#0571C1"/>
<path d="M31.5311 11.7476C31.376 11.6711 31.1435 11.6711 30.9109 11.6711H29.3605V12.8945H30.9109C31.1435 12.8945 31.376 12.8945 31.5311 12.818C31.6861 12.7415 31.7636 12.5122 31.7636 12.2828C31.8412 11.977 31.6861 11.8241 31.5311 11.7476Z" fill="#228FE0"/>
<path d="M26.1048 2.57279C25.9498 2.49634 25.7172 2.49634 25.4847 2.49634H23.9343V3.71966H25.4847C25.7172 3.71966 25.9498 3.71966 26.1048 3.6432C26.2598 3.56674 26.3374 3.33737 26.3374 3.108C26.4149 2.80217 26.2598 2.64925 26.1048 2.57279Z" fill="#228FE0"/>
<path d="M35.4846 4.40766H37.2676L36.4149 2.26685L35.4846 4.40766Z" fill="#228FE0"/>
<path d="M22.3063 15.4179V11.0598L20.2908 13.2006L22.3063 15.4179Z" fill="#228FE0"/>
<path d="M25.2521 11.5942H23.6241V12.9705H25.3296C25.7947 12.9705 26.1048 12.7411 26.1048 12.2824C26.0272 11.8236 25.7172 11.5942 25.2521 11.5942Z" fill="#228FE0"/>
<path d="M31.5311 11.7476C31.376 11.6711 31.1435 11.6711 30.9109 11.6711H29.3605V12.8945H30.9109C31.1435 12.8945 31.376 12.8945 31.5311 12.818C31.6861 12.7415 31.7636 12.5122 31.7636 12.2828C31.8412 11.977 31.6861 11.8241 31.5311 11.7476Z" fill="#228FE0"/>
<path d="M24.7093 15.7236L23.624 14.5768V15.8765H21.0659L19.5155 14.118L17.8101 15.8765H12.6938V10.5245H17.8876L19.5155 12.283L20.2907 11.3655L18.3527 9.4541H11.531V16.9469H18.3527L19.5155 15.8001L20.5233 16.9469H24.7093V15.7236Z" fill="#2FABF7"/>
<path d="M16.6473 7.77188L15.6396 6.70148H15.1745V6.24274L14.0117 5.09587L13.2365 6.70148H12.1512L10.2907 2.49632V6.70148H7.65508L7.11245 5.55462H4.47679L3.93415 6.70148H2.53881L4.86439 1.34946H6.80237L8.97291 6.47211V1.34946H10.1357L9.05043 0.279053H7.88764V1.19654L7.50005 0.279053H4.08919L2.53881 3.87255L0.755859 7.77188H2.53881H4.78687L5.25198 6.62502H6.33726L6.87989 7.77188H11.221V6.85439L11.6086 7.77188H13.8566L14.2442 6.85439V7.77188H16.6473Z" fill="#2FABF7"/>
<path d="M13.0814 4.25506L11.8411 3.03174L12.7714 5.01963L13.0814 4.25506Z" fill="#2FABF7"/>
<path d="M48.3528 16.5645C49.0504 16.1058 49.5156 15.3412 49.5931 14.5002L48.5078 13.4298C48.5853 13.6591 48.6628 13.8885 48.6628 14.1943C48.6628 14.6531 48.5078 15.0354 48.1977 15.3412C47.8877 15.647 47.345 15.8764 46.5698 15.8764H44.0892V14.7295H46.5698C46.8024 14.7295 46.9574 14.7295 47.1125 14.5766C47.19 14.5002 47.2675 14.3473 47.2675 14.1943C47.2675 14.0414 47.19 13.8885 47.1125 13.8121C47.0349 13.7356 46.8799 13.6591 46.6473 13.6591C45.407 13.5827 43.9342 13.6591 43.9342 11.9771C43.9342 11.2125 44.3993 10.5244 45.5621 10.3715L44.7094 9.53044C44.5543 9.6069 44.4768 9.68335 44.3993 9.68335V9.22461H40.8334C40.2908 9.22461 39.5931 9.37752 39.283 9.68335V9.22461H32.9264V9.68335C32.4613 9.30107 31.6086 9.22461 31.221 9.22461H27.0349V9.68335C26.6473 9.30107 25.7171 9.22461 25.252 9.22461H20.6008L19.5156 10.3715L18.5078 9.22461H17.6551L19.9807 11.5183L21.1435 10.295H25.252C26.2597 10.295 27.4225 10.6008 27.4225 12.0535C27.4225 13.5827 26.3373 13.8885 25.1745 13.8885H23.6241V15.0354L24.7869 16.1822V15.0354H25.1745C25.7171 15.0354 26.4148 15.0354 26.9574 14.806V16.8704H30.4458V14.8825H30.6008C30.8334 14.8825 30.8334 14.8825 30.8334 15.1118V16.8704H41.376C42.0737 16.8704 42.7714 16.7174 43.159 16.4116V16.8704H46.4923C47.1125 16.9468 47.8101 16.8704 48.3528 16.5645ZM32.9264 13.8121C33.0815 14.0414 33.159 14.3473 33.159 14.806V15.8764H31.8411V15.1883C31.8411 14.8825 31.8411 14.3473 31.6086 14.1179C31.4535 13.8885 31.1435 13.8885 30.6783 13.8885H29.283V15.8764H27.9652V10.4479H30.9109C31.5311 10.4479 32.0737 10.4479 32.4613 10.6773C32.8489 10.9067 33.159 11.289 33.159 11.9006C33.159 12.7417 32.6163 13.2004 32.2287 13.3533C32.6163 13.5062 32.8489 13.6591 32.9264 13.8121ZM38.2753 11.5948H35.252V12.5887H38.1977V13.6591H35.252V14.7295H38.2753V15.8764H33.9342V10.4479H38.2753V11.5948ZM41.5311 15.8764H39.0504V14.7295H41.5311C41.7636 14.7295 41.9187 14.7295 42.0737 14.5766C42.1512 14.5002 42.2287 14.3473 42.2287 14.1943C42.2287 14.0414 42.1512 13.8885 42.0737 13.8121C41.9962 13.7356 41.8411 13.6591 41.6086 13.6591C40.3683 13.5827 38.8954 13.6591 38.8954 11.9771C38.8954 11.2125 39.3605 10.3715 40.7559 10.3715H43.314V11.6712H40.9109C40.6784 11.6712 40.5233 11.6712 40.3683 11.7477C40.2132 11.8242 40.2132 11.9771 40.2132 12.13C40.2132 12.3594 40.3683 12.4358 40.5233 12.5123C40.6784 12.5887 40.8334 12.5887 40.9884 12.5887H41.6861C42.3838 12.5887 42.8489 12.7417 43.159 13.0475C43.3915 13.2769 43.5466 13.6591 43.5466 14.1943C43.5466 15.3412 42.8489 15.8764 41.5311 15.8764Z" fill="#228FE0"/>
<path d="M45.252 12.1299C45.252 12.3593 45.3295 12.4357 45.562 12.5122C45.7171 12.5886 45.8721 12.5886 46.0271 12.5886H46.7248C47.1899 12.5886 47.5 12.6651 47.8101 12.818L46.6473 11.6711H45.9496C45.7171 11.6711 45.562 11.6711 45.407 11.7476C45.3295 11.8241 45.252 11.977 45.252 12.1299Z" fill="#228FE0"/>
<path d="M42.5389 7.54224L42.6939 7.77161H42.7714L42.5389 7.54224Z" fill="#228FE0"/>
<path d="M38.2753 3.33716L39.5931 6.47191V4.63694L38.2753 3.33716Z" fill="#228FE0"/>
<path d="M25.0194 5.86016H25.1744C25.3295 5.86016 25.3295 5.86016 25.3295 6.08953V7.7716H30.9109V7.31285C31.376 7.54223 32.0736 7.7716 33.0039 7.7716H35.3295L35.7946 6.54828H36.8799L37.345 7.7716H41.8411V7.00702L40.7558 5.93662V6.77765H38.1202L37.7326 5.55433H35.0194L34.5543 6.77765H33.0814C32.4612 6.77765 31.6861 6.62474 31.2209 6.16599C30.7558 5.70725 30.5233 5.09559 30.5233 4.10164C30.5233 3.33707 30.6783 2.57249 31.2209 1.96083C31.6085 1.50209 32.3062 1.34917 33.1589 1.34917H34.3992V2.49603H33.1589C32.6938 2.49603 32.4612 2.57249 32.1512 2.80186C31.9186 3.03124 31.7636 3.48998 31.7636 4.02518C31.7636 4.63684 31.8411 5.01913 32.1512 5.32496C32.3837 5.55433 32.6938 5.63079 33.0814 5.63079H33.624L35.407 1.42563H36.1822L35.0969 0.355225H33.0814C32.2287 0.355225 31.531 0.50814 30.9109 0.81397V0.355225H27.5V0.81397C27.1124 0.50814 26.6473 0.355225 26.0271 0.355225H13.5465L12.6938 2.26666L11.8411 0.355225H8.43024L9.51551 1.42563H11.0659L12.3837 4.25456L12.8488 4.7133L14.2442 1.34917H16.4147V6.77765H15.0969V2.57249L13.7791 5.63079L16.0271 7.84806H24.9419L25.0194 5.86016ZM28.5853 1.34917H29.9031V6.77765H28.5853V1.34917ZM21.7636 2.49603H18.7403V3.48998H21.6861V4.56039H18.7403V5.63079H21.7636V6.77765H17.4225V1.34917H21.7636V2.49603ZM23.9341 6.7012H22.6163V1.27271H25.562C26.2597 1.27271 26.7248 1.27271 27.1124 1.50209C27.5 1.73146 27.7326 2.11375 27.7326 2.72541C27.7326 3.56644 27.1899 4.02518 26.8023 4.1781C27.1124 4.25456 27.345 4.48393 27.4225 4.63684C27.5775 4.94267 27.655 5.17204 27.655 5.63079V6.7012H26.3372V6.01308C26.3372 5.70725 26.3372 5.2485 26.1047 4.94267C26.0271 4.78976 25.7946 4.78976 25.3295 4.78976H23.9341V6.7012Z" fill="#228FE0"/>
</svg>
