<svg width="50" height="9" viewBox="0 0 50 9" fill="none" xmlns="http://www.w3.org/2000/svg">
<path d="M30.9294 4.62912C30.9338 3.57659 30.5403 2.52252 29.7482 1.72821C28.9545 0.932255 27.9007 0.537938 26.8488 0.544274C26.8438 0.544274 26.8389 0.543945 26.8337 0.543945C24.5496 0.543945 22.7379 2.36021 22.7379 4.65118C22.7379 6.91955 24.572 8.75809 26.8337 8.75809C29.1184 8.75809 30.9299 6.9415 30.9299 4.65118C30.9299 4.64365 30.9294 4.63655 30.9294 4.62912Z" fill="#F26E21"/>
<path d="M21.9764 6.38881C21.3642 7.00333 20.7992 7.24342 20.1906 7.25641C18.7079 7.24309 17.6178 6.14206 17.6178 4.57233C17.6178 3.78216 17.9162 3.13454 18.3889 2.58129C18.8321 2.15934 19.4031 1.88671 20.0597 1.88671C20.7685 1.88671 21.3202 2.12362 21.9499 2.75551V0.938924C21.3203 0.623142 20.7684 0.465088 20.0597 0.465088C19.0584 0.536851 18.1144 0.942529 17.3902 1.57955C17.1815 1.76787 16.9815 1.97573 16.8119 2.21363C16.2829 2.90112 15.9632 3.74295 15.9632 4.65163C15.9632 6.94184 17.7755 8.67945 20.0596 8.67945C20.0707 8.67945 20.0817 8.67847 20.0925 8.67836C20.1079 8.67858 20.123 8.67945 20.1383 8.67945C20.7683 8.67945 21.3202 8.52184 22.029 8.20584L21.9764 6.38881C21.9498 6.41546 22.0027 6.44025 21.9764 6.46549V6.38881Z" fill="#34495E"/>
<path d="M36.1008 1.59589L34.3169 5.99368L32.2688 0.780273H30.6149L33.8443 8.75783H34.7107L38.0978 0.780273H36.4439L36.1008 1.59589Z" fill="#34495E"/>
<path d="M38.7281 4.25573V8.52124H42.9819H43.0603V7.25702H41.7213H40.3035V5.83562V5.12498H42.9819V3.78178H40.3035V2.12325H43.0603V0.780273H38.7281V4.25573Z" fill="#34495E"/>
<path d="M3.12453 0.780273H0.918579V8.52124H3.12442C4.30577 8.52124 5.17209 8.20502 5.88101 7.6521C6.74733 6.94124 7.29895 5.83573 7.29895 4.65114C7.29906 2.35995 5.64463 0.780273 3.12453 0.780273ZM4.93604 6.62557C4.46339 7.02032 3.83323 7.25702 2.88793 7.25702H2.41528V2.12314H2.80906C3.75436 2.12314 4.38452 2.28108 4.85728 2.75481C5.40858 3.22843 5.72382 3.93973 5.72382 4.65081C5.80258 5.36168 5.48755 6.15118 4.93604 6.62557Z" fill="#34495E"/>
<path d="M9.50508 0.779785H8.00848V8.52053H9.50508V0.779785Z" fill="#34495E"/>
<path d="M13.2855 3.78244C12.3404 3.46655 12.1038 3.22941 12.1038 2.83466C12.1038 2.36071 12.5765 1.96585 13.2066 1.96585C13.6793 1.96585 14.0731 2.1239 14.4669 2.59785L15.2548 1.57109C14.6245 1.01796 13.8371 0.702393 12.9706 0.702393C11.6312 0.702393 10.5284 1.65028 10.5284 2.91363C10.5284 4.01968 11.0014 4.49352 12.4191 5.04644C13.0492 5.28303 13.2856 5.36233 13.4434 5.52027C13.7579 5.678 13.9158 5.99422 13.9158 6.30979C13.9158 6.94179 13.4434 7.41584 12.7341 7.41584C12.0245 7.41584 11.3949 7.02097 11.0798 6.38897L10.1345 7.33687C10.8437 8.36362 11.7101 8.83746 12.8129 8.83746C14.3882 8.83746 15.4905 7.8107 15.4905 6.30979C15.4907 4.96736 15.0185 4.41444 13.2855 3.78244Z" fill="#34495E"/>
<path d="M47.3143 5.28237C48.4954 5.04578 49.1258 4.25562 49.1258 3.07114C49.1258 1.64963 48.1016 0.780273 46.369 0.780273H44.0845V8.52124H45.5811V5.44043H45.8177L47.9439 8.52124H49.7558L47.3143 5.28237ZM46.0535 4.33448H45.5812V1.96519H46.0535C46.9988 1.96519 47.5504 2.35995 47.5504 3.15033C47.5504 3.93984 46.9989 4.33448 46.0535 4.33448Z" fill="#34495E"/>
</svg>
