<svg width="110" height="24" viewBox="0 0 110 24" fill="none" xmlns="http://www.w3.org/2000/svg">
<path d="M19.3909 15.8022L11.6657 8.07781V4.65228C11.6657 4.1115 11.5457 3.56655 11.309 3.05823L11.1332 2.72494C10.9258 2.27748 10.4916 2 9.99916 2C9.5067 2 9.07256 2.27748 8.87425 2.70576L8.68009 3.07655C8.45261 3.56651 8.33262 4.11064 8.33262 4.65224V8.07777L0.609949 15.8005C0.216661 16.1938 0 16.7163 0 17.2729V18.2495C0 18.402 0.0833133 18.542 0.216661 18.6145C0.349971 18.6878 0.513316 18.6828 0.641626 18.5995L8.49429 13.5674C8.57178 14.8281 8.67677 15.8805 8.80508 17.1613L8.93757 18.4737L6.02031 20.401C5.90282 20.4793 5.83283 20.6093 5.83283 20.7493V21.5825C5.83283 21.7083 5.89033 21.8283 5.98864 21.9075C6.08781 21.9875 6.21694 22.0175 6.33943 21.99L9.99912 21.1759L13.6588 21.99C13.6888 21.9967 13.7188 22 13.7488 22C13.843 22 13.9346 21.9683 14.0096 21.9083C14.1079 21.8283 14.1654 21.7083 14.1654 21.5825V20.7493C14.1654 20.6093 14.0954 20.4785 13.9779 20.4018L11.0607 18.477L11.1932 17.1604C11.3215 15.8813 11.4265 14.8298 11.504 13.569L19.3566 18.5994C19.4858 18.6827 19.6483 18.6869 19.7808 18.6144C19.9149 18.5419 19.9982 18.4019 19.9982 18.2495V17.2729C19.9983 16.7163 19.7825 16.1938 19.3909 15.8022Z" fill="black"/>
<path d="M35.94 3.64V3H31.14V10H31.88V7.03H35.5V6.39H31.88V3.64H35.94ZM43.0581 10L41.3481 7.6C42.3681 7.27 42.9481 6.5 42.9481 5.4C42.9481 3.9 41.8681 3 40.0881 3H37.4681V10H38.2081V7.78H40.0881C40.2881 7.78 40.4681 7.77 40.6481 7.75L42.2481 10H43.0581ZM40.0681 7.15H38.2081V3.64H40.0681C41.4681 3.64 42.2081 4.28 42.2081 5.4C42.2081 6.5 41.4681 7.15 40.0681 7.15ZM45.4347 9.36V6.76H49.0547V6.13H45.4347V3.64H49.4947V3H44.6947V10H49.6447V9.36H45.4347ZM52.1241 9.36V6.76H55.7441V6.13H52.1241V3.64H56.1841V3H51.3841V10H56.3341V9.36H52.1241ZM62.6208 10.06C64.4108 10.06 65.2308 9.18 65.2308 8.15C65.2308 5.6 60.9208 6.76 60.9208 4.84C60.9208 4.14 61.4908 3.57 62.7708 3.57C63.3908 3.57 64.0908 3.76 64.6908 4.15L64.9408 3.56C64.3808 3.17 63.5608 2.94 62.7708 2.94C60.9908 2.94 60.1908 3.83 60.1908 4.86C60.1908 7.45 64.5008 6.27 64.5008 8.19C64.5008 8.88 63.9308 9.43 62.6208 9.43C61.7008 9.43 60.8108 9.07 60.3108 8.58L60.0208 9.15C60.5408 9.69 61.5708 10.06 62.6208 10.06ZM71.9631 3V6.12H67.5831V3H66.8431V10H67.5831V6.77H71.9631V10H72.6931V3H71.9631ZM74.9779 10H75.7179V3H74.9779V10ZM80.6155 3H77.9955V10H78.7355V7.79H80.6155C82.3955 7.79 83.4755 6.89 83.4755 5.4C83.4755 3.9 82.3955 3 80.6155 3ZM80.5955 7.14H78.7355V3.64H80.5955C81.9955 3.64 82.7355 4.28 82.7355 5.4C82.7355 6.5 81.9955 7.14 80.5955 7.14ZM87.6955 3H85.0755V10H85.8155V7.79H87.6955C89.4755 7.79 90.5555 6.89 90.5555 5.4C90.5555 3.9 89.4755 3 87.6955 3ZM87.6755 7.14H85.8155V3.64H87.6755C89.0755 3.64 89.8155 4.28 89.8155 5.4C89.8155 6.5 89.0755 7.14 87.6755 7.14ZM92.1556 10H92.8956V3H92.1556V10ZM100.293 3V8.68L95.7832 3H95.1732V10H95.9132V4.32L100.413 10H101.023V3H100.293ZM108.238 8.86C107.698 9.25 107.078 9.4 106.408 9.4C104.688 9.4 103.418 8.16 103.418 6.5C103.418 4.83 104.688 3.6 106.418 3.6C107.238 3.6 107.938 3.84 108.528 4.42L108.988 3.95C108.368 3.28 107.448 2.94 106.388 2.94C104.248 2.94 102.688 4.45 102.688 6.5C102.688 8.55 104.248 10.06 106.378 10.06C107.348 10.06 108.288 9.76 108.948 9.17V6.5H108.238V8.86ZM40.04 15L37.99 21.05L35.93 15H35.24L33.15 21.02L31.13 15H30.37L32.73 22H33.5L35.56 16.03L37.61 22H38.39L40.75 15H40.04ZM45.0984 22.06C47.1984 22.06 48.7684 20.55 48.7684 18.5C48.7684 16.45 47.1984 14.94 45.0984 14.94C42.9784 14.94 41.4184 16.46 41.4184 18.5C41.4184 20.54 42.9784 22.06 45.0984 22.06ZM45.0984 21.4C43.4084 21.4 42.1484 20.17 42.1484 18.5C42.1484 16.83 43.4084 15.6 45.0984 15.6C46.7784 15.6 48.0284 16.83 48.0284 18.5C48.0284 20.17 46.7784 21.4 45.0984 21.4ZM56.0171 22L54.3071 19.6C55.3271 19.27 55.9071 18.5 55.9071 17.4C55.9071 15.9 54.8271 15 53.0471 15H50.4271V22H51.1671V19.78H53.0471C53.2471 19.78 53.4271 19.77 53.6071 19.75L55.2071 22H56.0171ZM53.0271 19.15H51.1671V15.64H53.0271C54.4271 15.64 55.1671 16.28 55.1671 17.4C55.1671 18.5 54.4271 19.15 53.0271 19.15ZM57.6537 22H62.3137V21.36H58.3937V15H57.6537V22ZM63.5423 22H66.3923C68.6323 22 70.1423 20.56 70.1423 18.5C70.1423 16.44 68.6323 15 66.3923 15H63.5423V22ZM64.2823 21.36V15.64H66.3523C68.2123 15.64 69.4123 16.82 69.4123 18.5C69.4123 20.18 68.2123 21.36 66.3523 21.36H64.2823ZM80.4892 15L78.4392 21.05L76.3792 15H75.6892L73.5992 21.02L71.5792 15H70.8192L73.1792 22H73.9492L76.0092 16.03L78.0592 22H78.8392L81.1992 15H80.4892ZM82.556 22H83.296V15H82.556V22ZM85.5736 22H88.4236C90.6636 22 92.1736 20.56 92.1736 18.5C92.1736 16.44 90.6636 15 88.4236 15H85.5736V22ZM86.3136 21.36V15.64H88.3836C90.2436 15.64 91.4436 16.82 91.4436 18.5C91.4436 20.18 90.2436 21.36 88.3836 21.36H86.3136ZM94.5753 21.36V18.76H98.1953V18.13H94.5753V15.64H98.6353V15H93.8353V22H98.7853V21.36H94.5753Z" fill="black"/>
</svg>
