<svg width="49" height="30" viewBox="0 0 49 30" fill="none" xmlns="http://www.w3.org/2000/svg">
<path d="M48.9187 14.6512C48.9187 22.7132 42.407 29.3023 34.2675 29.3023C26.2055 29.3023 19.6163 22.7132 19.6163 14.6512C19.6163 6.58915 26.128 0 34.19 0C42.407 0 48.9187 6.58915 48.9187 14.6512Z" fill="#FFB600"/>
<path d="M34.2675 0C42.3295 0 48.9187 6.58915 48.9187 14.6512C48.9187 22.7132 42.407 29.3023 34.2675 29.3023C26.2055 29.3023 19.6163 22.7132 19.6163 14.6512" fill="#F7981D"/>
<path d="M34.2674 0C42.3294 0 48.9186 6.58915 48.9186 14.6512C48.9186 22.7132 42.4069 29.3023 34.2674 29.3023" fill="#FF8500"/>
<path d="M14.5775 0C6.59305 0.0775194 0.0814209 6.58915 0.0814209 14.6512C0.0814209 22.7132 6.59305 29.3023 14.7326 29.3023C18.531 29.3023 21.9419 27.8295 24.5775 25.5039C25.1202 25.0388 25.5853 24.4961 26.0504 23.9535H23.0272C22.6396 23.4884 22.252 22.9457 21.9419 22.4806H27.1357C27.4458 22.0155 27.7558 21.4729 27.9884 20.9302H21.0892C20.8566 20.4651 20.6241 19.9225 20.469 19.3798H28.531C28.9961 17.907 29.3062 16.3566 29.3062 14.7287C29.3062 13.6434 29.1512 12.6357 28.9961 11.6279H20.0039C20.0814 11.0853 20.2365 10.6202 20.3915 10.0775H28.4535C28.2985 9.53488 28.0659 8.99225 27.8334 8.52713H21.0117C21.2442 7.9845 21.5543 7.51938 21.8644 6.97674H27.0582C26.7481 6.43411 26.3605 5.89147 25.8954 5.42636H23.0272C23.4923 4.88372 23.9574 4.4186 24.5 3.95349C21.9419 1.55039 18.4535 0.155039 14.6551 0.155039C14.6551 -1.50167e-07 14.6551 0 14.5775 0Z" fill="#FF5050"/>
<path d="M0.0814209 14.6512C0.0814209 22.7132 6.59305 29.3023 14.7326 29.3023C18.531 29.3023 21.9419 27.8294 24.5775 25.5039C25.1202 25.0387 25.5853 24.4961 26.0504 23.9535H23.0272C22.6396 23.4884 22.252 22.9457 21.9419 22.4806H27.1357C27.4458 22.0155 27.7558 21.4729 27.9884 20.9302H21.0892C20.8566 20.4651 20.6241 19.9225 20.469 19.3798H28.531C28.9961 17.907 29.3062 16.3566 29.3062 14.7287C29.3062 13.6434 29.1512 12.6356 28.9961 11.6279H20.0039C20.0814 11.0853 20.2365 10.6201 20.3915 10.0775H28.4535C28.2985 9.53487 28.0659 8.99224 27.8334 8.52712H21.0117C21.2442 7.98449 21.5543 7.51937 21.8644 6.97673H27.0582C26.7481 6.4341 26.3605 5.89146 25.8954 5.42635H23.0272C23.4923 4.88371 23.9574 4.41859 24.5 3.95348C21.9419 1.55038 18.4535 0.155029 14.6551 0.155029H14.5775" fill="#E52836"/>
<path d="M14.7326 29.3023C18.531 29.3023 21.9419 27.8294 24.5775 25.5039C25.1201 25.0387 25.5853 24.4961 26.0504 23.9535H23.0271C22.6395 23.4884 22.2519 22.9457 21.9419 22.4806H27.1357C27.4457 22.0155 27.7558 21.4729 27.9884 20.9302H21.0891C20.8566 20.4651 20.624 19.9225 20.469 19.3798H28.531C28.9961 17.907 29.3062 16.3566 29.3062 14.7287C29.3062 13.6434 29.1512 12.6356 28.9961 11.6279H20.0039C20.0814 11.0853 20.2364 10.6201 20.3915 10.0775H28.4535C28.2984 9.53487 28.0659 8.99224 27.8333 8.52712H21.0116C21.2442 7.98449 21.5543 7.51937 21.8643 6.97673H27.0581C26.7481 6.4341 26.3605 5.89146 25.8953 5.42635H23.0271C23.4922 4.88371 23.9574 4.41859 24.5 3.95348C21.9419 1.55038 18.4535 0.155029 14.655 0.155029H14.5775" fill="#CB2026"/>
<path d="M19.9263 18.3725L20.1589 17.0547C20.0814 17.0547 19.9263 17.1322 19.7713 17.1322C19.2287 17.1322 19.1512 16.8221 19.2287 16.6671L19.6938 13.9539H20.5465L20.7791 12.481H20.0039L20.1589 11.5508H18.6085C18.6085 11.5508 17.6783 16.6671 17.6783 17.2872C17.6783 18.2174 18.2209 18.605 18.9186 18.605C19.3837 18.605 19.7713 18.45 19.9263 18.3725Z" fill="white"/>
<path d="M20.469 15.8917C20.469 18.0623 21.9419 18.6049 23.1822 18.6049C24.345 18.6049 24.8101 18.3724 24.8101 18.3724L25.1202 16.8995C25.1202 16.8995 24.2674 17.2871 23.4923 17.2871C21.7868 17.2871 22.0969 16.0468 22.0969 16.0468H25.2752C25.2752 16.0468 25.5078 15.039 25.5078 14.6514C25.5078 13.6437 24.9651 12.4034 23.2597 12.4034C21.6318 12.2483 20.469 13.9538 20.469 15.8917ZM23.1822 13.6437C24.0349 13.6437 23.8798 14.6514 23.8798 14.7289H22.1744C22.1744 14.6514 22.3295 13.6437 23.1822 13.6437Z" fill="white"/>
<path d="M33.0271 18.3726L33.3372 16.6672C33.3372 16.6672 32.562 17.0548 32.0194 17.0548C30.9341 17.0548 30.469 16.2021 30.469 15.2719C30.469 13.4114 31.3992 12.4037 32.4845 12.4037C33.2597 12.4037 33.8798 12.8688 33.8798 12.8688L34.1124 11.2409C34.1124 11.2409 33.1822 10.8533 32.3294 10.8533C30.5465 10.8533 28.7635 12.4037 28.7635 15.3494C28.7635 17.2874 29.6938 18.6052 31.5542 18.6052C32.1744 18.6052 33.0271 18.3726 33.0271 18.3726Z" fill="white"/>
<path d="M11.3992 12.2485C10.314 12.2485 9.53876 12.5586 9.53876 12.5586L9.3062 13.8764C9.3062 13.8764 10.0039 13.5664 11.0116 13.5664C11.5543 13.5664 12.0194 13.6439 12.0194 14.109C12.0194 14.4191 11.9419 14.4966 11.9419 14.4966C11.9419 14.4966 11.4767 14.4966 11.2442 14.4966C9.92636 14.4966 8.45349 15.0392 8.45349 16.8222C8.45349 18.2175 9.38372 18.5276 9.92636 18.5276C11.0116 18.5276 11.4767 17.8299 11.5543 17.8299L11.4767 18.4501H12.8721L13.4922 14.1865C13.4922 12.3261 11.9419 12.2485 11.3992 12.2485ZM11.7093 15.7369C11.7093 15.9695 11.5543 17.2098 10.624 17.2098C10.1589 17.2098 10.0039 16.8222 10.0039 16.5896C10.0039 16.202 10.2364 15.6594 11.3992 15.6594C11.6318 15.7369 11.7093 15.7369 11.7093 15.7369Z" fill="white"/>
<path d="M14.9651 18.5275C15.3527 18.5275 17.2907 18.605 17.2907 16.512C17.2907 14.574 15.4303 14.9616 15.4303 14.1864C15.4303 13.7988 15.7403 13.6438 16.283 13.6438C16.5155 13.6438 17.3682 13.7213 17.3682 13.7213L17.6008 12.3259C17.6008 12.3259 17.0582 12.1709 16.1279 12.1709C14.9651 12.1709 13.8023 12.636 13.8023 14.1864C13.8023 15.9693 15.7403 15.8143 15.7403 16.512C15.7403 16.9771 15.1977 17.0546 14.8101 17.0546C14.1124 17.0546 13.4147 16.8221 13.4147 16.8221L13.1822 18.2174C13.2597 18.3724 13.6473 18.5275 14.9651 18.5275Z" fill="white"/>
<path d="M45.8953 11.0083L45.5853 13.1013C45.5853 13.1013 44.9651 12.3261 44.1124 12.3261C42.7171 12.3261 41.4767 14.0316 41.4767 16.0471C41.4767 17.2874 42.0969 18.6052 43.4147 18.6052C44.345 18.6052 44.8876 17.985 44.8876 17.985L44.8101 18.5277H46.3605L47.5233 11.0858L45.8953 11.0083ZM45.1977 15.1168C45.1977 15.9695 44.8101 17.0548 43.9574 17.0548C43.4147 17.0548 43.1047 16.5897 43.1047 15.8145C43.1047 14.5742 43.6473 13.799 44.345 13.799C44.8876 13.799 45.1977 14.1866 45.1977 15.1168Z" fill="white"/>
<path d="M2.94961 18.4502L3.87985 12.8688L4.03488 18.4502H5.12016L7.13566 12.8688L6.28295 18.4502H7.91085L9.15116 11.0083H6.59302L5.04264 15.5819L4.96512 11.0083H2.71706L1.47675 18.4502H2.94961Z" fill="white"/>
<path d="M26.9806 18.4501C27.4458 15.8919 27.5233 13.7989 28.6085 14.1865C28.7636 13.1788 28.9961 12.7912 29.1512 12.4036C29.1512 12.4036 29.0737 12.4036 28.8411 12.4036C28.1434 12.4036 27.6008 13.3338 27.6008 13.3338L27.7558 12.4811H26.283L25.2752 18.5276H26.9806V18.4501Z" fill="white"/>
<path d="M36.5931 12.2485C35.5078 12.2485 34.7326 12.5586 34.7326 12.5586L34.5001 13.8764C34.5001 13.8764 35.1977 13.5664 36.2055 13.5664C36.7481 13.5664 37.2132 13.6439 37.2132 14.109C37.2132 14.4191 37.1357 14.4966 37.1357 14.4966C37.1357 14.4966 36.6706 14.4966 36.438 14.4966C35.1202 14.4966 33.6473 15.0392 33.6473 16.8222C33.6473 18.2175 34.5776 18.5276 35.1202 18.5276C36.2055 18.5276 36.6706 17.8299 36.7481 17.8299L36.6706 18.4501H38.0659L38.6861 14.1865C38.7636 12.3261 37.1357 12.2485 36.5931 12.2485ZM36.9807 15.7369C36.9807 15.9695 36.8256 17.2098 35.8954 17.2098C35.4303 17.2098 35.2752 16.8222 35.2752 16.5896C35.2752 16.202 35.5078 15.6594 36.6706 15.6594C36.9032 15.7369 36.9032 15.7369 36.9807 15.7369Z" fill="white"/>
<path d="M40.0039 18.4501C40.469 15.8919 40.5465 13.7989 41.6318 14.1865C41.7868 13.1788 42.0194 12.7912 42.1744 12.4036C42.1744 12.4036 42.0969 12.4036 41.8644 12.4036C41.1667 12.4036 40.624 13.3338 40.624 13.3338L40.7791 12.4811H39.3062L38.2985 18.5276H40.0039V18.4501Z" fill="white"/>
<path d="M17.5233 17.2872C17.5233 18.2174 18.0659 18.605 18.7636 18.605C19.3062 18.605 19.7713 18.45 19.9264 18.3725L20.1589 17.0547C20.0814 17.0547 19.9264 17.1322 19.7713 17.1322C19.2287 17.1322 19.1512 16.8221 19.2287 16.6671L19.6938 13.9539H20.5465L20.7791 12.481H20.0039L20.1589 11.5508" fill="#DCE5E5"/>
<path d="M21.2442 15.8917C21.2442 18.0623 21.9419 18.6049 23.1822 18.6049C24.345 18.6049 24.8101 18.3724 24.8101 18.3724L25.1202 16.8995C25.1202 16.8995 24.2675 17.2871 23.4923 17.2871C21.7868 17.2871 22.0969 16.0468 22.0969 16.0468H25.2752C25.2752 16.0468 25.5078 15.039 25.5078 14.6514C25.5078 13.6437 24.9651 12.4034 23.2597 12.4034C21.6318 12.2483 21.2442 13.9538 21.2442 15.8917ZM23.1822 13.6437C24.0349 13.6437 24.1899 14.6514 24.1899 14.7289H22.1744C22.1744 14.6514 22.3295 13.6437 23.1822 13.6437Z" fill="#DCE5E5"/>
<path d="M33.0271 18.3726L33.3372 16.6672C33.3372 16.6672 32.562 17.0548 32.0194 17.0548C30.9341 17.0548 30.469 16.2021 30.469 15.2719C30.469 13.4114 31.3992 12.4037 32.4845 12.4037C33.2597 12.4037 33.8798 12.8688 33.8798 12.8688L34.1124 11.2409C34.1124 11.2409 33.1822 10.8533 32.3295 10.8533C30.5465 10.8533 29.5388 12.4037 29.5388 15.3494C29.5388 17.2874 29.6938 18.6052 31.5543 18.6052C32.1744 18.6052 33.0271 18.3726 33.0271 18.3726Z" fill="#DCE5E5"/>
<path d="M9.3062 13.954C9.3062 13.954 10.0039 13.6439 11.0116 13.6439C11.5543 13.6439 12.0194 13.7214 12.0194 14.1865C12.0194 14.4966 11.9419 14.5741 11.9419 14.5741C11.9419 14.5741 11.4767 14.5741 11.2442 14.5741C9.92636 14.5741 8.45349 15.1167 8.45349 16.8997C8.45349 18.295 9.38372 18.6051 9.92636 18.6051C11.0116 18.6051 11.4767 17.9074 11.5543 17.9074L11.4767 18.5276H12.8721L13.4922 14.264C13.4922 12.4811 11.9419 12.4036 11.3217 12.4036L9.3062 13.954ZM12.4845 15.7369C12.4845 15.9695 11.5543 17.2098 10.624 17.2098C10.1589 17.2098 10.0039 16.8222 10.0039 16.5896C10.0039 16.202 10.2364 15.6594 11.3992 15.6594C11.6318 15.7369 12.4845 15.7369 12.4845 15.7369Z" fill="#DCE5E5"/>
<path d="M13.2597 18.3724C13.2597 18.3724 13.7248 18.5275 15.0426 18.5275C15.4302 18.5275 17.3682 18.605 17.3682 16.512C17.3682 14.574 15.5078 14.9616 15.5078 14.1864C15.5078 13.7988 15.8178 13.6438 16.3605 13.6438C16.593 13.6438 17.4457 13.7213 17.4457 13.7213L17.6783 12.3259C17.6783 12.3259 17.1357 12.1709 16.2054 12.1709C15.0426 12.1709 14.6551 12.636 14.6551 14.1864C14.6551 15.9693 15.8178 15.8143 15.8178 16.512C15.8178 16.9771 15.2752 17.0546 14.8876 17.0546" fill="#DCE5E5"/>
<path d="M45.5852 13.1014C45.5852 13.1014 44.9651 12.3262 44.1124 12.3262C42.717 12.3262 42.2519 14.0317 42.2519 16.0472C42.2519 17.2875 42.0969 18.6053 43.4147 18.6053C44.3449 18.6053 44.8876 17.9852 44.8876 17.9852L44.81 18.5278H46.3604L47.5232 11.0859L45.5852 13.1014ZM45.5077 15.1169C45.5077 15.9697 44.81 17.0549 43.9573 17.0549C43.4147 17.0549 43.1046 16.5898 43.1046 15.8146C43.1046 14.5743 43.6472 13.7991 44.3449 13.7991C44.8876 13.7991 45.5077 14.1867 45.5077 15.1169Z" fill="#DCE5E5"/>
<path d="M2.94961 18.4502L3.87985 12.8688L4.03488 18.4502H5.12016L7.13566 12.8688L6.28295 18.4502H7.91085L9.15116 11.0083H7.21318L5.04264 15.5819L4.96512 11.0083H4.1124L1.47675 18.4502H2.94961Z" fill="#DCE5E5"/>
<path d="M25.3527 18.4501H26.9806C27.4457 15.8919 27.5232 13.7989 28.6085 14.1865C28.7635 13.1788 28.9961 12.7912 29.1511 12.4036C29.1511 12.4036 29.0736 12.4036 28.841 12.4036C28.1434 12.4036 27.6007 13.3338 27.6007 13.3338L27.7558 12.4811" fill="#DCE5E5"/>
<path d="M34.5001 13.954C34.5001 13.954 35.1977 13.6439 36.2055 13.6439C36.7481 13.6439 37.2132 13.7214 37.2132 14.1865C37.2132 14.4966 37.1357 14.5741 37.1357 14.5741C37.1357 14.5741 36.6706 14.5741 36.438 14.5741C35.1202 14.5741 33.6473 15.1167 33.6473 16.8997C33.6473 18.295 34.5776 18.6051 35.1202 18.6051C36.2055 18.6051 36.6706 17.9074 36.7481 17.9074L36.6706 18.5276H38.0659L38.6861 14.264C38.6861 12.4811 37.1357 12.4036 36.5156 12.4036L34.5001 13.954ZM37.6783 15.7369C37.6783 15.9695 36.7481 17.2098 35.8179 17.2098C35.3528 17.2098 35.1977 16.8222 35.1977 16.5896C35.1977 16.202 35.4303 15.6594 36.5931 15.6594C36.9032 15.7369 37.6783 15.7369 37.6783 15.7369Z" fill="#DCE5E5"/>
<path d="M38.376 18.4501H40.0039C40.469 15.8919 40.5465 13.7989 41.6318 14.1865C41.7868 13.1788 42.0194 12.7912 42.1744 12.4036C42.1744 12.4036 42.0969 12.4036 41.8643 12.4036C41.1667 12.4036 40.624 13.3338 40.624 13.3338L40.7791 12.4811" fill="#DCE5E5"/>
</svg>
