<svg width="126" height="24" viewBox="0 0 126 24" fill="none" xmlns="http://www.w3.org/2000/svg">
<path d="M18.1511 10.0548C18.1511 5.61328 14.4946 2 9.99992 2C5.50541 2 1.84888 5.61328 1.84888 10.0548C1.84888 14.4962 5.50541 18.1095 9.99992 18.1095C14.4946 18.1095 18.1511 14.4962 18.1511 10.0548ZM8.54694 13.4908L5.76405 10.7407L6.60758 9.90726L8.54694 11.8238L13.3924 7.03555L14.2359 7.86899L8.54694 13.4908Z" fill="black"/>
<path d="M2.46744 15.5107L0 19.0671L3.64804 18.3948L4.32836 22L6.63892 18.6698C4.96144 18.0284 3.5168 16.9219 2.46744 15.5107Z" fill="black"/>
<path d="M17.5326 15.5107C16.4832 16.9219 15.0386 18.0284 13.3611 18.6698L15.6716 22L16.352 18.3948L20 19.0671L17.5326 15.5107Z" fill="black"/>
<path d="M32.9 6L34.88 3.51V3H30.38V3.64H33.96L32.02 6.07V6.6H32.52C33.82 6.6 34.41 7.15 34.41 7.99C34.41 8.86 33.77 9.4 32.61 9.4C31.7 9.4 30.89 9.06 30.44 8.59L30.09 9.16C30.63 9.71 31.6 10.06 32.61 10.06C34.3 10.06 35.15 9.16 35.15 7.99C35.15 6.87 34.4 6.08 32.9 6ZM38.9545 10.06C40.5745 10.06 41.7545 8.73 41.7545 6.5C41.7545 4.27 40.5745 2.94 38.9545 2.94C37.3345 2.94 36.1645 4.27 36.1645 6.5C36.1645 8.73 37.3345 10.06 38.9545 10.06ZM38.9545 9.4C37.7345 9.4 36.8945 8.37 36.8945 6.5C36.8945 4.63 37.7345 3.6 38.9545 3.6C40.1745 3.6 41.0145 4.63 41.0145 6.5C41.0145 8.37 40.1745 9.4 38.9545 9.4ZM42.9438 7.6H45.5638V6.98H42.9438V7.6ZM47.3021 10H50.1521C52.3921 10 53.9021 8.56 53.9021 6.5C53.9021 4.44 52.3921 3 50.1521 3H47.3021V10ZM48.0421 9.36V3.64H50.1121C51.9721 3.64 53.1721 4.82 53.1721 6.5C53.1721 8.18 51.9721 9.36 50.1121 9.36H48.0421ZM60.6962 10H61.4762L58.2762 3H57.5462L54.3462 10H55.1162L55.9562 8.13H59.8562L60.6962 10ZM56.2262 7.53L57.9062 3.77L59.5862 7.53H56.2262ZM67.424 3H66.684L64.284 6.93L61.884 3H61.094L63.894 7.58V10H64.624V7.58L67.424 3ZM77.8488 3L74.8388 8.19L71.7988 3H71.1888V10H71.8988V4.43L74.6488 9.11H74.9988L77.7488 4.4V10H78.4588V3H77.8488ZM83.7996 10.06C85.8996 10.06 87.4696 8.55 87.4696 6.5C87.4696 4.45 85.8996 2.94 83.7996 2.94C81.6796 2.94 80.1196 4.46 80.1196 6.5C80.1196 8.54 81.6796 10.06 83.7996 10.06ZM83.7996 9.4C82.1096 9.4 80.8496 8.17 80.8496 6.5C80.8496 4.83 82.1096 3.6 83.7996 3.6C85.4796 3.6 86.7296 4.83 86.7296 6.5C86.7296 8.17 85.4796 9.4 83.7996 9.4ZM94.2483 3V8.68L89.7383 3H89.1283V10H89.8683V4.32L94.3683 10H94.9783V3H94.2483ZM98.003 9.36V6.76H101.623V6.13H98.003V3.64H102.063V3H97.263V10H102.213V9.36H98.003ZM109.065 3H108.325L105.925 6.93L103.525 3H102.735L105.535 7.58V10H106.265V7.58L109.065 3ZM35.55 18.39C36.19 18.13 36.62 17.6 36.62 16.8C36.62 15.66 35.72 15 34.16 15H31.14V22H34.36C36.11 22 36.99 21.32 36.99 20.13C36.99 19.18 36.45 18.59 35.55 18.39ZM34.11 15.61C35.23 15.61 35.88 16.04 35.88 16.88C35.88 17.72 35.23 18.15 34.11 18.15H31.88V15.61H34.11ZM34.35 21.39H31.88V18.76H34.35C35.58 18.76 36.25 19.16 36.25 20.07C36.25 20.99 35.58 21.39 34.35 21.39ZM43.9091 22H44.6891L41.4891 15H40.7591L37.5591 22H38.3291L39.1691 20.13H43.0691L43.9091 22ZM39.4391 19.53L41.1191 15.77L42.7991 19.53H39.4391ZM48.7894 22.06C49.8194 22.06 50.7394 21.71 51.3594 21.03L50.8894 20.56C50.3194 21.15 49.6194 21.4 48.8194 21.4C47.1294 21.4 45.8594 20.16 45.8594 18.5C45.8594 16.84 47.1294 15.6 48.8194 15.6C49.6194 15.6 50.3194 15.85 50.8894 16.43L51.3594 15.96C50.7394 15.28 49.8194 14.94 48.7994 14.94C46.6894 14.94 45.1294 16.45 45.1294 18.5C45.1294 20.55 46.6894 22.06 48.7894 22.06ZM57.9669 22H58.8469L55.6069 18.17L58.6369 15H57.7869L53.6769 19.23V15H52.9369V22H53.6769V20.16L55.1069 18.71L57.9669 22ZM67.5934 20.86C67.0534 21.25 66.4334 21.4 65.7634 21.4C64.0434 21.4 62.7734 20.16 62.7734 18.5C62.7734 16.83 64.0434 15.6 65.7734 15.6C66.5934 15.6 67.2934 15.84 67.8834 16.42L68.3434 15.95C67.7234 15.28 66.8034 14.94 65.7434 14.94C63.6034 14.94 62.0434 16.45 62.0434 18.5C62.0434 20.55 63.6034 22.06 65.7334 22.06C66.7034 22.06 67.6434 21.76 68.3034 21.17V18.5H67.5934V20.86ZM73.2178 22.06C75.0078 22.06 76.0878 21.02 76.0878 19.01V15H75.3678V18.98C75.3678 20.64 74.5878 21.4 73.2178 21.4C71.8578 21.4 71.0778 20.64 71.0778 18.98V15H70.3378V19.01C70.3378 21.02 71.4278 22.06 73.2178 22.06ZM83.4013 22H84.1813L80.9813 15H80.2513L77.0513 22H77.8213L78.6613 20.13H82.5613L83.4013 22ZM78.9313 19.53L80.6113 15.77L82.2913 19.53H78.9313ZM90.9292 22L89.2192 19.6C90.2392 19.27 90.8192 18.5 90.8192 17.4C90.8192 15.9 89.7392 15 87.9592 15H85.3392V22H86.0792V19.78H87.9592C88.1592 19.78 88.3392 19.77 88.5192 19.75L90.1192 22H90.9292ZM87.9392 19.15H86.0792V15.64H87.9392C89.3392 15.64 90.0792 16.28 90.0792 17.4C90.0792 18.5 89.3392 19.15 87.9392 19.15ZM97.7958 22H98.5758L95.3758 15H94.6458L91.4458 22H92.2158L93.0558 20.13H96.9558L97.7958 22ZM93.3258 19.53L95.0058 15.77L96.6858 19.53H93.3258ZM104.854 15V20.68L100.344 15H99.7338V22H100.474V16.32L104.974 22H105.584V15H104.854ZM109.229 22H109.969V15.64H112.429V15H106.769V15.64H109.229V22ZM114.351 21.36V18.76H117.971V18.13H114.351V15.64H118.411V15H113.611V22H118.561V21.36H114.351ZM121.04 21.36V18.76H124.66V18.13H121.04V15.64H125.1V15H120.3V22H125.25V21.36H121.04Z" fill="black"/>
</svg>
