<svg width="50" height="14" viewBox="0 0 50 14" fill="none" xmlns="http://www.w3.org/2000/svg">
<path d="M38.5336 2.36271C37.3346 2.36271 36.3755 2.67461 35.5762 2.83056L35.3364 4.62399C35.736 4.46804 36.8551 4.15614 37.8142 4.07816C38.7734 4.07816 39.3329 4.23411 39.173 5.09184C36.2955 5.09184 34.3772 5.63767 33.9776 7.50907C33.4181 10.6281 36.935 10.7061 38.2938 9.30251L38.1339 10.1602H40.6917L41.8107 5.09184C42.2104 2.98651 40.292 2.28473 38.5336 2.36271ZM38.6934 7.58705C38.5336 8.21085 37.9741 8.44478 37.3346 8.52275C36.7751 8.52275 36.2955 8.21085 36.6153 7.58705C36.935 7.1192 37.6544 7.1192 38.2139 7.1192C38.3737 7.1192 38.6135 7.1192 38.8533 7.1192C38.7734 7.04122 38.6934 7.35312 38.6934 7.58705Z" fill="#32A6CE"/>
<path d="M35.3364 4.62374C35.736 4.46779 36.8551 4.15589 37.8142 4.07791C38.7734 4.07791 39.3329 4.23386 39.173 5.09159C36.2955 5.09159 34.3772 5.63742 33.9776 7.50882C33.4181 10.6278 36.935 10.7058 38.2938 9.30225L38.1339 10.16H40.6917L41.8107 5.09159C42.2903 2.98626 40.292 2.44043 38.5336 2.44043L35.3364 4.62374ZM38.6934 7.5868C38.5336 8.2106 37.9741 8.44453 37.3346 8.5225C36.7751 8.5225 36.2955 8.2106 36.6153 7.5868C36.935 7.11895 37.6544 7.11895 38.2139 7.11895C38.3737 7.11895 38.6135 7.11895 38.8533 7.11895C38.7734 7.04097 38.6934 7.35287 38.6934 7.5868Z" fill="#1A80AD"/>
<path d="M43.9687 0.0234375L41.8906 10.1602H44.4483L46.6064 0.0234375H43.9687Z" fill="#32A6CE"/>
<path d="M45.8071 0.0234375L41.8906 10.1602H44.4483L46.6064 0.0234375H43.9687H45.8071Z" fill="#1A80AD"/>
<path d="M32.0592 0.0234375H27.3433L25.2652 10.1602H28.0627L28.7821 7.04121H30.7803C32.6987 7.04121 34.2973 5.94956 34.6969 4.00018C35.0966 1.73889 33.418 0.0234375 32.0592 0.0234375ZM31.9793 3.53232C31.8194 4.2341 31.1001 4.70195 30.3807 4.70195H29.1018L29.6613 2.3627H31.0201C31.7395 2.3627 32.1391 2.83055 31.9793 3.53232Z" fill="#32A6CE"/>
<path d="M32.0592 0.0234375H28.862L25.1852 10.1602H27.9828L28.7022 7.04121H30.7004C32.6187 7.04121 34.2173 5.94956 34.617 4.00018C35.0966 1.73889 33.418 0.0234375 32.0592 0.0234375ZM31.9793 3.53232C31.8194 4.2341 31.1001 4.70195 30.3807 4.70195H29.1018L29.6613 2.3627H31.0201C31.7395 2.3627 32.1391 2.83055 31.9793 3.53232Z" fill="#1A80AD"/>
<path d="M13.5954 2.36271C12.3964 2.36271 11.4373 2.67461 10.7179 2.83056L10.4781 4.62399C10.7978 4.46804 11.9968 4.15614 12.9559 4.07816C13.9151 4.07816 14.4746 4.23411 14.3148 5.09184C11.5172 5.09184 9.59888 5.63767 9.19923 7.50907C8.63972 10.6281 12.0767 10.7061 13.4355 9.30251L13.2757 10.1602H15.8334L16.9524 5.09184C17.3521 2.98651 15.3538 2.28473 13.5954 2.36271ZM13.8352 7.58705C13.6753 8.21085 13.1158 8.44478 12.4764 8.52275C11.9169 8.52275 11.4373 8.21085 11.8369 7.58705C12.1566 7.1192 12.876 7.1192 13.3556 7.1192C13.5954 7.1192 13.7552 7.1192 13.995 7.1192C13.9151 7.04122 13.8352 7.35312 13.8352 7.58705Z" fill="#21789E"/>
<path d="M10.5581 4.62374C10.8778 4.46779 12.0767 4.15589 13.0359 4.07791C13.9951 4.07791 14.5546 4.23386 14.3947 5.09159C11.5972 5.09159 9.67884 5.63742 9.27919 7.50882C8.71968 10.6278 12.1567 10.7058 13.5155 9.30225L13.2757 10.16H15.8334L16.9525 5.09159C17.432 2.98626 15.4338 2.44043 13.6753 2.44043L10.5581 4.62374ZM13.8352 7.5868C13.6753 8.2106 13.1158 8.44453 12.4764 8.5225C11.9169 8.5225 11.4373 8.2106 11.8369 7.5868C12.1567 7.11895 12.876 7.11895 13.3556 7.11895C13.5954 7.11895 13.7553 7.11895 13.9951 7.11895C13.9151 7.04097 13.8352 7.35287 13.8352 7.5868Z" fill="#1A5B80"/>
<path d="M17.9916 2.36255H20.5494L20.949 6.72916L23.5068 2.36255H26.1444L20.0698 13.2791H17.1923L19.0307 10.0041L17.9916 2.36255Z" fill="#21789E"/>
<path d="M20.5494 2.5185L20.949 6.80714L23.5068 2.36255H26.1444L20.0698 13.2791H17.1923L19.0307 10.0821" fill="#1A5B80"/>
<path d="M7.28093 0.0244141H2.48513L0.406952 10.1612H3.2045L3.92387 7.04219H5.92212C7.84044 7.04219 9.43904 5.95054 9.83869 4.00115C10.3183 1.73987 8.63974 0.0244141 7.28093 0.0244141ZM7.201 3.5333C7.04114 4.23508 6.32177 4.70293 5.6024 4.70293H4.32352L4.88303 2.36367H6.24184C6.96121 2.36367 7.36086 2.83152 7.201 3.5333Z" fill="#21789E"/>
<path d="M7.28093 0.0244141H5.12282L0.406952 10.1612H3.2045L3.92387 7.04219H5.92212C7.84044 7.04219 9.43904 5.95054 9.83869 4.00115C10.3183 1.73987 8.63974 0.0244141 7.28093 0.0244141ZM7.201 3.5333C7.04114 4.23508 6.32177 4.70293 5.6024 4.70293H4.32352L4.88303 2.36367H6.24184C6.96121 2.36367 7.36086 2.83152 7.201 3.5333Z" fill="#1A5B80"/>
<path d="M13.1158 5.09229C10.9577 5.24824 9.51898 5.87204 9.19926 7.43154C8.63975 10.5506 12.0767 10.6285 13.4356 9.22497L13.2757 10.1607H15.8334L16.2331 8.28927L13.1158 5.09229ZM13.8352 7.58749C13.6753 8.2113 13.1158 8.44522 12.4764 8.5232C11.9169 8.5232 11.4373 8.2113 11.837 7.58749C12.1567 7.11964 12.876 7.11964 13.3556 7.11964C13.5954 7.11964 13.7553 7.11964 13.9951 7.11964C13.9151 7.04167 13.8352 7.35357 13.8352 7.58749Z" fill="#06435E"/>
<path d="M21.1088 6.65192L20.9489 6.88585L22.6274 8.44535L26.1444 2.36328H23.5067L21.1088 6.65192Z" fill="#06435E"/>
<path d="M3.20452 10.1605L3.92389 7.0415L0.646759 10.1605H3.20452Z" fill="#06435E"/>
<path d="M27.9827 10.16L28.7021 6.88501V6.96299L25.4249 10.16H27.9827Z" fill="#2273AA"/>
<path d="M37.9739 5.09155C35.8158 5.2475 34.377 5.87131 34.0573 7.43081C33.4978 10.5498 37.0147 10.6278 38.3735 9.22424L38.1337 10.1599H40.6915L41.0912 8.28854L37.9739 5.09155ZM38.6933 7.58676C38.5334 8.21056 37.9739 8.44449 37.3344 8.52247C36.7749 8.52247 36.2954 8.21056 36.6151 7.58676C36.9348 7.11891 37.6542 7.11891 38.2137 7.11891C38.3735 7.11891 38.6133 7.11891 38.8531 7.11891C38.7732 7.04093 38.6933 7.35284 38.6933 7.58676Z" fill="#2273AA"/>
<path d="M43.7289 5.55957L41.8905 10.1601H44.4483L45.1677 7.0411L43.7289 5.55957Z" fill="#2273AA"/>
<path d="M47.166 1.66142V0.569769H46.7663V0.413818H47.8054V0.569769H47.4058V1.66142H47.166Z" fill="#32A6CE"/>
<path d="M47.9653 1.66103V0.413423H48.2051L48.5248 1.27115C48.5248 1.34913 48.6047 1.4271 48.6047 1.4271C48.6047 1.34913 48.6047 1.34913 48.6847 1.19318L49.0044 0.335449H49.2442V1.58305H49.0843V0.491399L48.6847 1.58305H48.4449L48.0452 0.491399V1.58305H47.9653V1.66103Z" fill="#32A6CE"/>
</svg>
