<svg width="95" height="24" viewBox="0 0 95 24" fill="none" xmlns="http://www.w3.org/2000/svg">
<path d="M25.09 3V3.64H26.74V10H27.46V3H25.09ZM31.9233 10.06C33.5433 10.06 34.7233 8.73 34.7233 6.5C34.7233 4.27 33.5433 2.94 31.9233 2.94C30.3033 2.94 29.1333 4.27 29.1333 6.5C29.1333 8.73 30.3033 10.06 31.9233 10.06ZM31.9233 9.4C30.7033 9.4 29.8633 8.37 29.8633 6.5C29.8633 4.63 30.7033 3.6 31.9233 3.6C33.1433 3.6 33.9833 4.63 33.9833 6.5C33.9833 8.37 33.1433 9.4 31.9233 9.4ZM38.5444 10.06C40.1644 10.06 41.3444 8.73 41.3444 6.5C41.3444 4.27 40.1644 2.94 38.5444 2.94C36.9244 2.94 35.7544 4.27 35.7544 6.5C35.7544 8.73 36.9244 10.06 38.5444 10.06ZM38.5444 9.4C37.3244 9.4 36.4844 8.37 36.4844 6.5C36.4844 4.63 37.3244 3.6 38.5444 3.6C39.7644 3.6 40.6044 4.63 40.6044 6.5C40.6044 8.37 39.7644 9.4 38.5444 9.4ZM43.8555 6.75C44.7855 6.75 45.4355 6 45.4355 4.85C45.4355 3.7 44.7855 2.95 43.8555 2.95C42.9155 2.95 42.2755 3.71 42.2755 4.85C42.2755 5.99 42.9155 6.75 43.8555 6.75ZM43.3155 10H43.9055L48.6855 3H48.0955L43.3155 10ZM43.8555 6.3C43.1955 6.3 42.7755 5.75 42.7755 4.85C42.7755 3.95 43.1955 3.4 43.8555 3.4C44.5055 3.4 44.9355 3.94 44.9355 4.85C44.9355 5.76 44.5055 6.3 43.8555 6.3ZM48.1455 10.05C49.0855 10.05 49.7255 9.29 49.7255 8.15C49.7255 7.01 49.0855 6.25 48.1455 6.25C47.2155 6.25 46.5655 7.01 46.5655 8.15C46.5655 9.29 47.2155 10.05 48.1455 10.05ZM48.1455 9.6C47.4955 9.6 47.0655 9.06 47.0655 8.15C47.0655 7.24 47.4955 6.7 48.1455 6.7C48.8055 6.7 49.2255 7.25 49.2255 8.15C49.2255 9.05 48.8055 9.6 48.1455 9.6ZM55.8337 10.06C57.6237 10.06 58.4437 9.18 58.4437 8.15C58.4437 5.6 54.1337 6.76 54.1337 4.84C54.1337 4.14 54.7037 3.57 55.9837 3.57C56.6037 3.57 57.3037 3.76 57.9037 4.15L58.1537 3.56C57.5937 3.17 56.7737 2.94 55.9837 2.94C54.2037 2.94 53.4037 3.83 53.4037 4.86C53.4037 7.45 57.7137 6.27 57.7137 8.19C57.7137 8.88 57.1437 9.43 55.8337 9.43C54.9137 9.43 54.0237 9.07 53.5237 8.58L53.2337 9.15C53.7537 9.69 54.7837 10.06 55.8337 10.06ZM60.796 9.36V6.76H64.416V6.13H60.796V3.64H64.856V3H60.056V10H65.006V9.36H60.796ZM69.7464 10.06C70.7764 10.06 71.6964 9.71 72.3164 9.03L71.8464 8.56C71.2764 9.15 70.5764 9.4 69.7764 9.4C68.0864 9.4 66.8164 8.16 66.8164 6.5C66.8164 4.84 68.0864 3.6 69.7764 3.6C70.5764 3.6 71.2764 3.85 71.8464 4.43L72.3164 3.96C71.6964 3.28 70.7764 2.94 69.7564 2.94C67.6464 2.94 66.0864 4.45 66.0864 6.5C66.0864 8.55 67.6464 10.06 69.7464 10.06ZM76.6944 10.06C78.4844 10.06 79.5644 9.02 79.5644 7.01V3H78.8444V6.98C78.8444 8.64 78.0644 9.4 76.6944 9.4C75.3344 9.4 74.5544 8.64 74.5544 6.98V3H73.8144V7.01C73.8144 9.02 74.9044 10.06 76.6944 10.06ZM87.3843 10L85.6743 7.6C86.6943 7.27 87.2743 6.5 87.2743 5.4C87.2743 3.9 86.1943 3 84.4143 3H81.7943V10H82.5343V7.78H84.4143C84.6143 7.78 84.7943 7.77 84.9743 7.75L86.5743 10H87.3843ZM84.3943 7.15H82.5343V3.64H84.3943C85.7943 3.64 86.5343 4.28 86.5343 5.4C86.5343 6.5 85.7943 7.15 84.3943 7.15ZM89.7609 9.36V6.76H93.3809V6.13H89.7609V3.64H93.8209V3H89.0209V10H93.9709V9.36H89.7609ZM29.18 22.06C30.21 22.06 31.13 21.71 31.75 21.03L31.28 20.56C30.71 21.15 30.01 21.4 29.21 21.4C27.52 21.4 26.25 20.16 26.25 18.5C26.25 16.84 27.52 15.6 29.21 15.6C30.01 15.6 30.71 15.85 31.28 16.43L31.75 15.96C31.13 15.28 30.21 14.94 29.19 14.94C27.08 14.94 25.52 16.45 25.52 18.5C25.52 20.55 27.08 22.06 29.18 22.06ZM38.4475 15V18.12H34.0675V15H33.3275V22H34.0675V18.77H38.4475V22H39.1775V15H38.4475ZM42.2023 21.36V18.76H45.8223V18.13H42.2023V15.64H46.2623V15H41.4623V22H46.4123V21.36H42.2023ZM51.1527 22.06C52.1827 22.06 53.1027 21.71 53.7227 21.03L53.2527 20.56C52.6827 21.15 51.9827 21.4 51.1827 21.4C49.4927 21.4 48.2227 20.16 48.2227 18.5C48.2227 16.84 49.4927 15.6 51.1827 15.6C51.9827 15.6 52.6827 15.85 53.2527 16.43L53.7227 15.96C53.1027 15.28 52.1827 14.94 51.1627 14.94C49.0527 14.94 47.4927 16.45 47.4927 18.5C47.4927 20.55 49.0527 22.06 51.1527 22.06ZM60.3302 22H61.2102L57.9702 18.17L61.0002 15H60.1502L56.0402 19.23V15H55.3002V22H56.0402V20.16L57.4702 18.71L60.3302 22ZM65.2156 22.06C67.3156 22.06 68.8856 20.55 68.8856 18.5C68.8856 16.45 67.3156 14.94 65.2156 14.94C63.0956 14.94 61.5356 16.46 61.5356 18.5C61.5356 20.54 63.0956 22.06 65.2156 22.06ZM65.2156 21.4C63.5256 21.4 62.2656 20.17 62.2656 18.5C62.2656 16.83 63.5256 15.6 65.2156 15.6C66.8956 15.6 68.1456 16.83 68.1456 18.5C68.1456 20.17 66.8956 21.4 65.2156 21.4ZM73.3643 22.06C75.1543 22.06 76.2343 21.02 76.2343 19.01V15H75.5143V18.98C75.5143 20.64 74.7343 21.4 73.3643 21.4C72.0043 21.4 71.2243 20.64 71.2243 18.98V15H70.4843V19.01C70.4843 21.02 71.5743 22.06 73.3643 22.06ZM79.6875 22H80.4275V15.64H82.8875V15H77.2275V15.64H79.6875V22Z" fill="black"/>
<path d="M14.5833 9.5H13.3333V7.83332C13.3333 4.6168 10.7166 2 7.5 2C4.28344 2 1.66668 4.6168 1.66668 7.83332V9.5H0.41668C0.186367 9.5 0 9.68637 0 9.91668V20.3334C0 21.2525 0.747461 22 1.66668 22H13.3334C14.2525 22 15 21.2525 15 20.3333V9.91668C15 9.68637 14.8136 9.5 14.5833 9.5ZM8.74758 18.204C8.76059 18.3216 8.72277 18.4396 8.64383 18.5279C8.56488 18.6162 8.45176 18.6667 8.33336 18.6667H6.66668C6.54828 18.6667 6.43516 18.6162 6.35621 18.5279C6.27727 18.4396 6.23941 18.3216 6.25246 18.204L6.51531 15.8404C6.08848 15.5299 5.83336 15.0387 5.83336 14.5C5.83336 13.5808 6.58082 12.8333 7.50004 12.8333C8.41926 12.8333 9.16672 13.5808 9.16672 14.5C9.16672 15.0387 8.9116 15.5299 8.48477 15.8404L8.74758 18.204ZM10.8333 9.5H4.16668V7.83332C4.16668 5.99535 5.66203 4.5 7.5 4.5C9.33797 4.5 10.8333 5.99535 10.8333 7.83332V9.5Z" fill="black"/>
</svg>
