<svg width="50" height="15" viewBox="0 0 50 15" fill="none" xmlns="http://www.w3.org/2000/svg">
<path d="M18.1512 14.5931L20.6318 0.785645H24.5078L22.1047 14.5931H18.1512Z" fill="#3C58BF"/>
<path d="M18.1512 14.5931L21.3295 0.785645H24.5078L22.1047 14.5931H18.1512Z" fill="#293688"/>
<path d="M36.1356 0.939103C35.3604 0.632271 34.1201 0.325439 32.5697 0.325439C28.6938 0.325439 25.9031 2.24314 25.9031 5.00463C25.9031 7.07575 27.841 8.14966 29.3914 8.84003C30.9418 9.53041 31.4069 9.99065 31.4069 10.6043C31.4069 11.5248 30.1666 11.9851 29.0813 11.9851C27.531 11.9851 26.6782 11.7549 25.3604 11.218L24.8178 10.9879L24.2751 14.1329C25.2054 14.5164 26.9108 14.9 28.6938 14.9C32.8023 14.9 35.5155 12.9823 35.5155 10.0674C35.5155 8.45649 34.5077 7.22916 32.1821 6.23196C30.7868 5.54159 29.9341 5.15805 29.9341 4.46767C29.9341 3.85401 30.6317 3.24035 32.1821 3.24035C33.5 3.24035 34.4302 3.47047 35.1279 3.7773L35.5155 3.93072L36.1356 0.939103Z" fill="#3C58BF"/>
<path d="M36.1356 0.939103C35.3604 0.632271 34.1201 0.325439 32.5697 0.325439C28.6938 0.325439 26.6007 2.24314 26.6007 5.00463C26.6007 7.07575 27.841 8.14966 29.3914 8.84003C30.9418 9.53041 31.4069 9.99065 31.4069 10.6043C31.4069 11.5248 30.1666 11.9851 29.0813 11.9851C27.531 11.9851 26.6782 11.7549 25.3604 11.218L24.8178 10.9879L24.2751 14.1329C25.2054 14.5164 26.9108 14.9 28.6938 14.9C32.8023 14.9 35.5155 12.9823 35.5155 10.0674C35.5155 8.45649 34.5077 7.22916 32.1821 6.23196C30.7868 5.54159 29.9341 5.15805 29.9341 4.46767C29.9341 3.85401 30.6317 3.24035 32.1821 3.24035C33.5 3.24035 34.4302 3.47047 35.1279 3.7773L35.5155 3.93072L36.1356 0.939103Z" fill="#293688"/>
<path d="M42.8023 0.785645C41.8721 0.785645 41.1744 0.862353 40.7868 1.78285L34.9729 14.5931H39.1589L39.9341 12.2919H44.8954L45.3605 14.5931H49.0814L45.8256 0.785645H42.8023ZM41.0194 9.99061C41.2519 9.30024 42.5698 5.92509 42.5698 5.92509C42.5698 5.92509 42.8798 5.0813 43.1124 4.54434L43.345 5.84838C43.345 5.84838 44.1202 9.30024 44.2752 10.0673H41.0194V9.99061Z" fill="#3C58BF"/>
<path d="M43.7326 0.785645C42.8023 0.785645 42.1047 0.862353 41.7171 1.78285L34.9729 14.5931H39.1589L39.9341 12.2919H44.8954L45.3605 14.5931H49.0814L45.8256 0.785645H43.7326ZM41.0194 9.99061C41.3295 9.22353 42.5698 5.92509 42.5698 5.92509C42.5698 5.92509 42.8798 5.0813 43.1124 4.54434L43.345 5.84838C43.345 5.84838 44.1202 9.30024 44.2752 10.0673H41.0194V9.99061Z" fill="#293688"/>
<path d="M11.0193 10.4508L10.6317 8.4564C9.93403 6.15516 7.68597 3.6238 5.20535 2.39647L8.69372 14.6698H12.8798L19.1588 0.862305H14.9728L11.0193 10.4508Z" fill="#3C58BF"/>
<path d="M11.0193 10.4508L10.6317 8.4564C9.93403 6.15516 7.68597 3.6238 5.20535 2.39647L8.69372 14.6698H12.8798L19.1588 0.862305H15.748L11.0193 10.4508Z" fill="#293688"/>
<path d="M0.244141 0.785645L0.941815 0.939061C5.90306 2.08968 9.31391 5.00459 10.6317 8.45645L9.23639 1.93627C9.00383 1.01577 8.30616 0.785645 7.45344 0.785645H0.244141Z" fill="#FFBC00"/>
<path d="M0.244141 0.785645C5.20538 1.93627 9.31391 4.92788 10.6317 8.37974L9.31391 2.93347C9.08135 2.01297 8.30616 1.47602 7.45344 1.47602L0.244141 0.785645Z" fill="#F7981D"/>
<path d="M0.244141 0.785645C5.20538 1.93627 9.31391 4.92788 10.6317 8.37974L9.7015 5.38813C9.46895 4.46763 9.15887 3.54714 8.0736 3.16359L0.244141 0.785645Z" fill="#ED7C00"/>
<path d="M14.8952 9.99063L12.2596 7.38256L11.0193 10.2975L10.7092 8.37976C10.0115 6.07852 7.76346 3.54715 5.28284 2.31982L8.77121 14.5931H12.9573L14.8952 9.99063Z" fill="#051244"/>
<path d="M22.1046 14.5932L18.7712 11.218L18.1511 14.5932H22.1046Z" fill="#051244"/>
<path d="M31.0194 9.8374C31.3294 10.1442 31.4845 10.3744 31.407 10.6812C31.407 11.6017 30.1667 12.0619 29.0814 12.0619C27.531 12.0619 26.6783 11.8318 25.3604 11.2949L24.8178 11.0647L24.2752 14.2098C25.2054 14.5933 26.9108 14.9768 28.6938 14.9768C31.1744 14.9768 33.1899 14.2865 34.3527 13.0591L31.0194 9.8374Z" fill="#051244"/>
<path d="M35.5153 14.5932H39.1587L39.9339 12.2919H44.8952L45.3603 14.5932H49.0812L47.7634 8.9935L43.1122 4.54443L43.3448 5.77176C43.3448 5.77176 44.12 9.22362 44.275 9.99071H41.0192C41.3293 9.22362 42.5696 5.92518 42.5696 5.92518C42.5696 5.92518 42.8797 5.08139 43.1122 4.54443" fill="#051244"/>
</svg>
